<svg width="200" height="60" viewBox="0 0 200 60" xmlns="http://www.w3.org/2000/svg">
  <rect width="200" height="60" fill="black"/>
  <g transform="translate(10, 5)">
    <path d="M 22.92,42.41 C 21.03,44.3 18.09,45.34 14.1,45.34 C 6.03,45.34 0,40.45 0,32.37 C 0,24.3 6.03,19.4 14.1,19.4 C 18.09,19.4 21.03,20.44 22.92,22.33 L 19.98,25.27 C 18.52,23.81 16.45,22.92 14.1,22.92 C 8.6,22.92 4.8,26.72 4.8,32.37 C 4.8,37.98 8.6,41.82 14.1,41.82 C 16.45,41.82 18.52,40.93 19.98,39.47 L 22.92,42.41 Z" fill="#F59E0B"/>
    <path d="M 23.3,34.2 C 17.5,21.5 25,10 40,10 C 55,10 62.5,21.5 56.7,34.2 C 50.9,46.9 34.1,46.9 23.3,34.2 Z M 31.5,37 C 35.5,37 38.5,34 39,30 C 39.5,26 38,22 35,22 C 32,22 29,25 29,29 C 29,33 31.5,37 31.5,37 Z" fill="#F59E0B" transform="translate(5, -8) scale(0.9)"/>
    <text x="50" y="30" font-family="Arial, sans-serif" font-size="18" font-weight="bold" fill="#F59E0B">SAWARIKARO</text>
    <text x="75" y="45" font-family="Arial, sans-serif" font-size="6" fill="gray">APNA SAFAR APNE LOG</text>
    <line x1="75" y1="38" x2="160" y2="38" stroke="gray" stroke-width="0.5"/>
  </g>
</svg>
